<svg width="300" height="300" viewBox="0 0 300 300" fill="none" xmlns="http://www.w3.org/2000/svg">
<path d="M262.72 80.6299L260.58 39.4299C260.53 38.5399 260.03 37.7399 259.25 37.3099C258.47 36.8799 257.52 36.8899 256.75 37.3299L201.29 68.7199C200.57 67.8699 199.7 67.1199 198.68 66.5299C193.89 63.7699 187.75 65.4099 184.99 70.1999C184.15 71.6599 183.72 73.2499 183.66 74.8399L166.9 76.9799H141.65L116.06 73.7099L60.4999 42.2599C60.7599 40.1699 60.3799 37.9799 59.2499 36.0099C56.4899 31.2199 50.3399 29.5799 45.5599 32.3399C40.7699 35.0999 39.1199 41.2499 41.8899 46.0299C43.1599 48.2299 45.1499 49.7399 47.3799 50.4899L46.2299 72.6299C43.4299 73.1399 40.8699 74.8199 39.3399 77.4699C36.5799 82.2599 38.2199 88.3999 43.0099 91.1599C44.5799 92.0699 46.3099 92.4999 47.9999 92.4999C49.0599 92.4999 50.1099 92.3099 51.1099 91.9899C51.0399 92.0099 50.9699 92.0399 50.8899 92.0699L70.3899 133.24L60.7299 175.2C60.6699 175.47 60.6599 175.74 60.6899 176.01C60.6399 176.14 60.5899 176.27 60.5499 176.42L58.6899 184.57C58.4499 185.61 58.8799 186.69 59.7699 187.28L108.65 219.86L132.15 266.99C132.59 267.86 133.48 268.41 134.45 268.41H153.46C153.74 268.41 154.01 268.35 154.26 268.27C154.51 268.35 154.78 268.41 155.06 268.41H174.07C175.04 268.41 175.94 267.86 176.37 266.99L199.87 219.86L248.75 187.28C249.64 186.69 250.07 185.61 249.83 184.57L247.97 176.42C247.94 176.28 247.89 176.14 247.83 176.01C247.85 175.75 247.85 175.48 247.79 175.21L240.1 141.8C241.72 140.95 243.13 139.66 244.1 137.97C245.44 135.65 245.8 132.95 245.1 130.36C244.56 128.36 243.44 126.61 241.89 125.3L262.47 81.8599C262.65 81.4699 262.74 81.0499 262.71 80.6199L262.72 80.6299ZM53.0299 91.1698C53.0299 91.1698 52.9999 91.1799 52.9899 91.1898C53.0499 91.1498 53.1099 91.1099 53.1699 91.0699C53.1199 91.0998 53.0799 91.1399 53.0299 91.1698Z" fill="url(#paint0_linear_172_3848)"/>
<path d="M193.65 85.23C191.95 85.23 190.23 84.8 188.66 83.89C183.87 81.13 182.23 74.9799 184.99 70.1999C187.75 65.4099 193.89 63.7699 198.68 66.5299C203.47 69.2898 205.11 75.44 202.35 80.22C200.5 83.43 197.12 85.23 193.65 85.23ZM193.68 70.33C191.99 70.33 190.35 71.21 189.44 72.77C188.09 75.1 188.9 78.09 191.23 79.44C193.56 80.78 196.55 79.98 197.9 77.65C199.24 75.32 198.44 72.33 196.11 70.98C195.34 70.54 194.5 70.33 193.68 70.33Z" fill="white"/>
<path d="M48 92.52C46.3 92.52 44.58 92.09 43.01 91.18C38.22 88.41 36.58 82.27 39.34 77.48C42.1 72.69 48.24 71.05 53.03 73.81C57.82 76.57 59.46 82.72 56.7 87.5C54.85 90.71 51.47 92.51 48 92.51V92.52ZM48.03 77.62C46.34 77.62 44.7 78.5 43.79 80.06C42.44 82.39 43.25 85.38 45.58 86.73C47.91 88.07 50.9 87.27 52.25 84.94C53.59 82.61 52.79 79.62 50.46 78.27C49.69 77.83 48.85 77.62 48.03 77.62Z" fill="white"/>
<path d="M235.41 142.98C233.71 142.98 231.99 142.55 230.42 141.64C228.1 140.3 226.44 138.14 225.75 135.55C225.06 132.96 225.41 130.26 226.75 127.94C229.51 123.15 235.65 121.51 240.44 124.27C242.76 125.61 244.42 127.77 245.11 130.36C245.8 132.95 245.45 135.65 244.11 137.97C242.26 141.18 238.88 142.98 235.41 142.98ZM235.44 128.08C233.75 128.08 232.11 128.96 231.2 130.52C230.55 131.65 230.37 132.96 230.71 134.22C231.05 135.48 231.85 136.53 232.98 137.18C235.31 138.52 238.3 137.73 239.65 135.39C240.3 134.26 240.48 132.94 240.14 131.68C239.8 130.42 239 129.37 237.87 128.72C237.1 128.28 236.26 128.07 235.44 128.07V128.08Z" fill="white"/>
<path d="M183.66 74.83L166.9 76.97H141.65L116.06 73.7L60.4999 42.2599C60.2799 43.9899 59.63 45.66 58.56 47.07L113.95 78.43C114.24 78.59 114.56 78.7 114.89 78.74L141.14 82.1C141.25 82.11 141.36 82.12 141.47 82.12H167.05C167.16 82.12 167.27 82.12 167.38 82.1L184.8 79.87C183.99 78.32 183.59 76.59 183.65 74.83H183.66Z" fill="white"/>
<path d="M59.2499 36.0099C56.4899 31.2199 50.3399 29.5799 45.5599 32.3399C40.7699 35.0999 39.1199 41.2499 41.8899 46.0299C43.7399 49.2399 47.12 51.04 50.59 51.04C52.29 51.04 54.01 50.61 55.58 49.7C60.37 46.94 62.0099 40.7899 59.2499 36.0099Z" fill="white"/>
<path d="M51.36 73.05L52.51 50.83C51.87 50.96 51.23 51.04 50.59 51.04C49.49 51.04 48.4099 50.8399 47.3799 50.4899L46.23 72.64C47.96 72.33 49.73 72.48 51.36 73.05Z" fill="white"/>
<path d="M223.2 91.72C218.41 88.96 212.27 90.6 209.51 95.39C206.75 100.18 208.39 106.32 213.18 109.08C214.75 109.99 216.48 110.42 218.17 110.42C221.64 110.42 225.01 108.62 226.87 105.41C229.63 100.62 227.99 94.48 223.2 91.72Z" fill="white"/>
<path d="M231.28 123.85L222.83 109.27C221.78 109.82 220.66 110.19 219.49 110.34L228.44 125.79C229.28 124.97 230.24 124.32 231.28 123.85Z" fill="white"/>
<path d="M260.58 39.4299C260.53 38.5399 260.03 37.7399 259.25 37.3099C258.47 36.8799 257.52 36.8899 256.75 37.3299L201.29 68.7199C202.43 70.0599 203.19 71.67 203.51 73.37L253.9 44.85L221.55 90.97C222.12 91.17 222.67 91.42 223.21 91.73C223.69 92.01 224.13 92.33 224.55 92.67L255.89 48L257.56 80.26L237.26 123.12C238.35 123.32 239.43 123.7 240.45 124.28C240.97 124.58 241.45 124.94 241.9 125.32L262.48 81.87C262.66 81.48 262.75 81.0599 262.72 80.6299L260.58 39.4299Z" fill="white"/>
<path d="M249.84 184.58L247.98 176.43C247.95 176.29 247.9 176.15 247.84 176.02C247.86 175.76 247.86 175.49 247.8 175.22L240.11 141.81C238.66 142.57 237.05 142.98 235.42 142.98C235.31 142.98 235.21 142.96 235.1 142.96L242.79 176.37C242.82 176.51 242.87 176.64 242.93 176.77C242.91 177.03 242.91 177.3 242.97 177.57L244.44 183.99L196.47 215.97C196.1 216.22 195.8 216.56 195.59 216.96L172.49 263.28H155.07C154.79 263.28 154.52 263.34 154.27 263.42C154.02 263.34 153.75 263.28 153.47 263.28H136.05L112.95 216.96C112.75 216.56 112.45 216.22 112.07 215.97L64.1 183.99L65.57 177.57C65.64 177.28 65.64 176.98 65.61 176.7C65.65 176.59 65.72 176.49 65.75 176.37L75.62 133.54C75.62 133.54 75.62 133.49 75.62 133.46L93.68 102.28C94.01 101.7 93.98 100.98 93.6 100.44L57.2 48.54C56.71 48.97 56.17 49.36 55.58 49.7C55.15 49.95 54.71 50.15 54.27 50.33L90.17 101.51L74.15 129.16L55.29 89.34C54.63 90.04 53.89 90.68 53.04 91.18C52.35 91.58 51.64 91.87 50.91 92.09L70.41 133.26L60.75 175.22C60.69 175.49 60.68 175.76 60.71 176.03C60.66 176.16 60.61 176.29 60.57 176.44L58.71 184.59C58.47 185.63 58.9 186.71 59.79 187.3L108.67 219.88L132.17 267.01C132.61 267.88 133.5 268.43 134.47 268.43H153.48C153.76 268.43 154.03 268.37 154.28 268.29C154.53 268.37 154.8 268.43 155.08 268.43H174.09C175.06 268.43 175.96 267.88 176.39 267.01L199.89 219.88L248.77 187.3C249.66 186.71 250.09 185.63 249.85 184.59L249.84 184.58Z" fill="white"/>
<path d="M106.54 183.29C106.95 184.07 107.73 184.58 108.6 184.66L131.32 186.58L128.5 213.62L108.21 195.77C108.01 195.59 107.77 195.47 107.51 195.4L64.44 184.23L73.13 190.03L106.25 198.62L136.65 225.37V239.39C136.65 240.18 137.02 240.93 137.64 241.42L152.29 252.81C152.76 253.17 153.31 253.35 153.87 253.35C154 253.35 154.13 253.33 154.25 253.31C154.38 253.33 154.5 253.35 154.63 253.35C155.18 253.35 155.74 253.17 156.21 252.81L170.86 241.42C171.49 240.93 171.85 240.18 171.85 239.39V225.37L202.25 198.62L235.37 190.03L244.06 184.23L200.99 195.4C200.73 195.47 200.49 195.59 200.29 195.77L180 213.62L177.19 186.58L199.91 184.66C200.79 184.58 201.56 184.07 201.97 183.29L211.59 164.98C212.03 164.15 211.97 163.15 211.46 162.37C210.94 161.59 210.07 161.15 209.11 161.23L186.68 163.06C186.07 163.11 185.5 163.37 185.07 163.8L173.78 175.09C173.57 175.3 173.42 175.54 173.29 175.8C172.94 176.15 172.72 176.64 172.78 177.17L176.86 216.39L169.58 222.8C169.48 222.79 169.39 222.77 169.29 222.77H154.84C154.64 222.77 154.44 222.8 154.26 222.84C154.07 222.8 153.88 222.77 153.68 222.77H139.23C139.13 222.77 139.03 222.79 138.94 222.8L131.66 216.4L135.76 177.09C135.82 176.51 135.56 175.99 135.15 175.63C135.04 175.44 134.91 175.25 134.75 175.09L123.46 163.8C123.03 163.37 122.46 163.11 121.85 163.06L99.42 161.23C98.46 161.16 97.58 161.59 97.07 162.37C96.55 163.15 96.5 164.15 96.94 164.98L106.55 183.29H106.54ZM188.05 168.1L204.89 166.72L198.1 179.65L178.56 181.3L178.27 177.88L188.05 168.1ZM141.81 227.91H153.69C153.89 227.91 154.09 227.88 154.27 227.84C154.46 227.88 154.65 227.91 154.85 227.91H166.73V238.12L154.27 247.81L141.81 238.12V227.91ZM120.49 168.1L130.27 177.88L129.98 181.3L110.44 179.65L103.65 166.72L120.48 168.1H120.49Z" fill="white"/>
<defs>
<linearGradient id="paint0_linear_172_3848" x1="150.363" y1="60.6224" x2="150.363" y2="255.029" gradientUnits="userSpaceOnUse">
<stop stop-color="#00B775"/>
<stop offset="1" stop-color="#00B775" stop-opacity="0"/>
</linearGradient>
</defs>
</svg>
