<svg width="520" height="600" viewBox="0 0 520 600" fill="none" xmlns="http://www.w3.org/2000/svg">
<path d="M0 165.2V434.698C0 445.559 5.7 455.608 15 461.09L245 595.889C254.3 601.37 265.7 601.37 275 595.889L505 461.09C514.3 455.608 520 445.559 520 434.698V165.2C520 154.339 514.3 144.29 505 138.809L275 4.11098C265.7 -1.37033 254.3 -1.37033 245 4.11098L15 138.809C5.7 144.29 0 154.339 0 165.2Z" fill="#201C26"/>
<path d="M0 165.2V434.698C0 445.559 5.7 455.608 15 461.09L245 595.889C254.3 601.37 265.7 601.37 275 595.889L505 461.09C514.3 455.608 520 445.559 520 434.698V165.2C520 154.339 514.3 144.29 505 138.809L275 4.11098C265.7 -1.37033 254.3 -1.37033 245 4.11098L15 138.809C5.7 144.29 0 154.339 0 165.2Z" fill="url(#paint0_linear_831_13261)"/>
<path d="M31 183.37V416.63C31 427.491 36.7 437.54 46 443.021L245 559.651C254.3 565.133 265.7 565.133 275 559.651L474 443.021C483.3 437.54 489 427.491 489 416.63V183.37C489 172.509 483.3 162.46 474 156.978L275 40.4498C265.7 34.9685 254.3 34.9685 245 40.4498L46 156.978C36.7 162.46 31 172.509 31 183.37Z" fill="#201C26"/>
<path d="M31 183.37V416.63C31 427.491 36.7 437.54 46 443.021L245 559.651C254.3 565.133 265.7 565.133 275 559.651L474 443.021C483.3 437.54 489 427.491 489 416.63V183.37C489 172.509 483.3 162.46 474 156.978L275 40.4498C265.7 34.9685 254.3 34.9685 245 40.4498L46 156.978C36.7 162.46 31 172.509 31 183.37Z" fill="url(#paint1_linear_831_13261)"/>
<path d="M520 208.746H0V426.07H520V208.746Z" fill="#201C26"/>
<path d="M520 208.746H0V426.07H520V208.746Z" fill="url(#paint2_linear_831_13261)"/>
<path fill-rule="evenodd" clip-rule="evenodd" d="M166.5 158.298C166.5 164.794 167 171.189 167.9 177.584L169.9 191.287C168.1 191.592 166.4 191.795 164.5 191.795C162.6 191.795 160.9 191.592 159.1 191.287L161.1 177.584C162 171.189 162.5 164.794 162.5 158.298V129.47C163.2 129.47 163.9 129.369 164.6 129.369C165.3 129.369 166 129.369 166.7 129.47V158.298H166.5ZM145.8 185.501L153.8 169.666C154.4 168.448 154.7 167.129 154.7 165.809V130.993C142.5 135.154 133.6 146.828 133.6 160.632C133.7 170.783 138.5 179.817 145.8 185.501ZM174.2 165.809C174.2 167.129 174.5 168.448 175.1 169.666L183.1 185.501C190.5 179.817 195.2 170.783 195.2 160.632C195.2 146.828 186.4 135.154 174.1 130.993V165.809H174.2Z" fill="white"/>
<path d="M385 150.482V149.771H388.4V150.482H385ZM386.3 154.238V150.279H387V154.238H386.3ZM389.1 154.238V149.873H389.8V154.238H389.1ZM391.2 154.238L389.3 149.873H390.1L391.4 153.121L392.7 149.873H393.5L391.6 154.238H391.2ZM392.9 154.238V149.873H393.6V154.238H392.9Z" fill="white"/>
<path d="M230.5 141.549C219 141.549 210.6 149.873 210.6 161.444V161.85C210.6 173.524 218.8 181.746 230.5 181.746C242.2 181.746 250.3 173.524 250.3 161.749V161.343C250.3 149.67 242.1 141.549 230.5 141.549ZM218.7 161.444C218.7 153.121 223.2 147.944 230.5 147.944C237.8 147.944 242.2 153.222 242.2 161.444V161.85C242.2 170.072 237.6 175.452 230.6 175.452C223.6 175.452 218.7 169.869 218.7 161.952V161.444Z" fill="white"/>
<path d="M286.399 140.027C285.099 139.621 284.099 139.519 282.499 139.519C276.299 139.519 272.699 143.072 272.699 149.365V152.512H261.899V149.061C261.899 145.914 263.799 145.203 265.299 145.203C266.499 145.203 267.499 145.508 268.099 145.711C268.199 145.711 268.299 145.711 268.399 145.711C268.499 145.609 268.499 145.609 268.499 145.508V140.433C268.499 140.331 268.399 140.23 268.299 140.128C266.999 139.722 265.999 139.621 264.499 139.621C258.199 139.621 254.699 143.072 254.699 149.467V181.035C254.699 181.238 254.799 181.339 254.999 181.339H261.499C261.699 181.339 261.799 181.238 261.799 181.035V157.892H272.599V180.832C272.599 181.035 272.699 181.136 272.899 181.136H279.399C279.599 181.136 279.699 181.035 279.699 180.832V157.892H285.799C285.999 157.892 286.099 157.79 286.099 157.587V152.715C286.099 152.512 285.999 152.41 285.799 152.41H279.699V149.061C279.699 145.914 281.599 145.203 283.099 145.203C284.399 145.203 285.399 145.508 285.999 145.711C286.099 145.711 286.199 145.711 286.299 145.711C286.399 145.711 286.399 145.609 286.399 145.508V140.433C286.599 140.23 286.599 140.128 286.399 140.027Z" fill="white"/>
<path d="M305.7 157.689C299.1 156.775 297.9 155.253 297.9 152.309C297.9 149.365 300.3 147.538 304.3 147.538C308.7 147.538 310.8 149.162 311.5 153.019C311.5 153.121 311.6 153.222 311.8 153.222H318.4C318.5 153.222 318.6 153.222 318.6 153.121C318.7 153.019 318.7 153.019 318.7 152.918C317.9 145.406 313 141.448 304.3 141.448C296.2 141.448 290.5 146.117 290.5 152.816C290.5 159.516 294.4 163.068 304.4 164.388C311.1 165.505 312.2 167.027 312.2 169.971C312.2 173.321 309.4 175.554 305.2 175.554C298.7 175.554 297.3 172.305 296.9 168.753C296.9 168.651 296.8 168.448 296.6 168.448H289.7C289.6 168.448 289.5 168.448 289.5 168.55C289.4 168.651 289.4 168.651 289.4 168.753C289.8 174.539 292.9 181.542 305.2 181.542C313.6 181.542 319.7 176.366 319.7 169.362C319.8 161.343 314.4 158.907 305.7 157.689Z" fill="white"/>
<path d="M347.599 155.253C345.199 153.02 341.899 151.802 338.099 151.802C329.599 151.802 323.699 157.892 323.699 166.622V167.028C323.699 175.757 329.599 181.644 338.299 181.644C345.799 181.644 350.699 178.193 351.599 172.204C351.599 172.103 351.599 172.001 351.499 172.001C351.399 171.9 351.399 171.9 351.299 171.9H344.999C344.899 171.9 344.699 172.001 344.699 172.103C344.199 174.844 342.099 176.163 338.499 176.163C333.999 176.163 331.299 173.422 330.999 168.449H351.399C351.599 168.449 351.699 168.347 351.699 168.144V166.216C351.699 161.546 350.299 157.791 347.599 155.253ZM331.199 163.576C331.899 159.516 334.399 157.182 338.099 157.182C342.099 157.182 344.299 159.313 344.599 163.576H331.199Z" fill="white"/>
<path d="M384.099 170.174C383.999 170.072 383.999 170.072 383.899 170.072H377.899C377.699 170.072 377.599 170.174 377.599 170.377C377.299 173.828 374.699 176.163 371.099 176.163C366.299 176.163 363.599 172.813 363.599 167.129V166.723C363.599 161.241 366.499 157.79 370.999 157.79C374.599 157.79 376.699 159.516 377.199 162.865C377.199 162.967 377.299 163.17 377.499 163.17H383.799C383.899 163.17 383.999 163.17 383.999 163.069C384.099 162.967 384.099 162.967 384.099 162.865C383.399 155.963 378.599 152.004 370.899 152.004C362.399 152.004 356.299 158.298 356.299 166.926V167.332C356.299 176.061 362.199 181.949 370.899 181.949C378.499 181.949 383.799 177.482 384.299 170.58C384.199 170.377 384.199 170.275 384.099 170.174Z" fill="white"/>
<path d="M290.201 489.714C297.901 480.883 301.101 472.154 297.701 466.672C294.301 461.089 285.101 460.074 273.701 463.12C270.301 454.999 265.301 449.924 259.601 449.924C257.501 449.924 255.601 450.634 253.701 451.852C253.401 451.649 253.101 451.548 252.801 451.446C251.901 451.243 250.901 451.345 250.101 451.852C248.401 452.867 247.801 455.101 248.801 456.725C248.901 456.928 249.001 457.029 249.101 457.232C249.001 457.131 248.901 456.928 248.801 456.826C247.501 458.755 246.301 460.988 245.201 463.526C233.701 460.785 224.701 462.104 221.401 467.789C218.201 473.473 221.601 482 229.601 490.729C228.401 492.15 227.201 493.571 226.201 494.992C220.801 502.605 219.301 509.305 222.001 513.771C223.701 516.613 226.801 518.237 231.201 518.846C231.301 519.252 231.401 519.557 231.601 519.963C232.301 521.079 233.501 521.79 234.701 521.79C235.301 521.79 235.901 521.587 236.501 521.282C237.301 520.775 237.901 520.064 238.201 519.049C238.301 518.643 238.301 518.237 238.301 517.831C238.301 518.136 238.301 518.542 238.201 518.846C238.901 518.745 239.701 518.643 240.501 518.542C242.001 518.339 243.601 517.933 245.201 517.527C248.601 525.85 253.701 531.027 259.401 531.027C265.301 531.027 270.401 525.546 273.901 516.918C277.901 517.933 281.701 518.44 285.001 518.44C291.301 518.44 296.101 516.613 298.201 512.857C301.601 506.869 298.201 498.342 290.201 489.714Z" fill="url(#paint3_linear_831_13261)"/>
<path d="M259.601 449.924C257.501 449.924 255.601 450.634 253.701 451.852C254.201 452.157 254.701 452.563 255.001 453.172C256.501 452.258 258.001 451.751 259.601 451.751C269.001 451.751 276.701 469.108 276.701 490.425C276.701 511.741 269.001 529.098 259.601 529.098C250.201 529.098 242.501 511.741 242.501 490.425C242.501 476.924 245.601 465.048 250.301 458.146C249.801 457.841 249.301 457.435 249.001 456.826C244.001 464.033 240.701 476.315 240.701 490.425C240.701 513.162 249.001 530.925 259.701 530.925C270.301 530.925 278.701 513.162 278.701 490.425C278.601 467.687 270.201 449.924 259.601 449.924Z" fill="white"/>
<path d="M283.901 488.191C282.701 488.191 281.501 487.582 280.801 486.364C280.301 485.552 280.201 484.537 280.401 483.624C280.601 482.71 281.201 481.898 282.101 481.391C283.801 480.375 286.001 480.984 286.901 482.71C287.401 483.522 287.501 484.537 287.301 485.451C287.101 486.364 286.501 487.176 285.601 487.684C285.101 487.988 284.501 488.191 283.901 488.191ZM283.901 482.812C283.601 482.812 283.301 482.913 283.001 483.015C282.201 483.522 281.901 484.537 282.401 485.451C282.901 486.263 283.901 486.567 284.801 486.06C285.201 485.857 285.501 485.451 285.601 485.045C285.701 484.639 285.701 484.131 285.401 483.725C285.101 483.116 284.501 482.812 283.901 482.812Z" fill="white"/>
<path d="M287 486.364C286.7 486.872 286.3 487.379 285.7 487.684C285.7 487.684 285.6 487.684 285.6 487.785C295.1 496.819 299.9 506.259 296.8 511.741C292.2 519.861 271.4 516.918 251.4 505.244C231.4 493.571 218.5 476.823 223.1 468.601C227.7 460.48 248.5 463.424 268.5 475.097C272.9 477.635 276.9 480.477 280.5 483.421C280.7 482.812 281.1 482.304 281.6 481.898C278 478.954 273.9 476.214 269.4 473.575C247.9 460.988 226.9 458.45 221.6 467.789C216.3 477.127 229 494.282 250.5 506.868C263.3 514.38 275.9 518.237 285.1 518.237C291.4 518.237 296.2 516.41 298.3 512.654C302 506.158 297.2 496.109 287 486.364Z" fill="white"/>
<path d="M252.001 458.45C251.701 458.45 251.401 458.45 251.101 458.349C250.201 458.146 249.401 457.537 248.901 456.623C247.901 454.898 248.501 452.664 250.201 451.751C251.001 451.243 252.001 451.142 252.901 451.345C253.801 451.548 254.601 452.157 255.101 453.07C256.101 454.796 255.501 457.029 253.801 457.943C253.201 458.349 252.601 458.45 252.001 458.45ZM251.901 453.172C251.601 453.172 251.301 453.273 251.001 453.375C250.201 453.882 249.901 454.898 250.401 455.811C250.601 456.217 251.001 456.522 251.401 456.623C251.801 456.725 252.301 456.725 252.701 456.42C253.501 455.913 253.801 454.898 253.301 453.984C253.101 453.476 252.501 453.172 251.901 453.172Z" fill="white"/>
<path d="M297.801 466.571C292.201 457.334 271.301 460.48 250.101 473.676C240.101 479.868 231.701 487.379 226.401 494.789C221.001 502.402 219.501 509.102 222.201 513.568C223.901 516.41 227.101 518.034 231.401 518.643C231.301 518.136 231.301 517.527 231.401 516.918C231.401 516.816 231.401 516.816 231.501 516.715C227.801 516.207 225.101 514.786 223.701 512.553C221.401 508.797 222.901 502.707 227.801 495.804C232.901 488.598 241.101 481.289 250.901 475.199C263.401 467.383 276.301 463.12 285.301 463.12C290.401 463.12 294.301 464.541 296.101 467.383C301.001 475.402 288.501 492.556 268.801 504.737C259.001 510.827 248.901 514.989 240.201 516.309C239.501 516.41 238.801 516.512 238.101 516.613C238.301 517.222 238.301 517.831 238.201 518.44C238.901 518.339 239.701 518.237 240.501 518.136C249.401 516.715 259.801 512.553 269.801 506.26C291.101 493.368 303.301 475.808 297.801 466.571Z" fill="white"/>
<path d="M238.001 516.105C237.501 515.293 236.801 514.684 235.801 514.38C234.901 514.177 233.901 514.278 233.101 514.786C232.301 515.293 231.701 516.004 231.401 517.019C231.201 517.932 231.301 518.948 231.801 519.76C232.501 520.876 233.701 521.587 234.901 521.587C235.501 521.587 236.101 521.384 236.701 521.079C237.501 520.572 238.101 519.861 238.401 518.846C238.701 517.831 238.401 517.019 238.001 516.105Z" fill="white"/>
<path d="M259.6 484.639C256.5 484.639 254 487.177 254 490.323C254 493.47 256.5 496.008 259.6 496.008C262.7 496.008 265.2 493.47 265.2 490.323C265.2 487.177 262.7 484.639 259.6 484.639Z" fill="white"/>
<path d="M250.201 484.943C250.001 484.943 249.901 484.943 249.701 484.74C249.301 484.436 249.201 483.928 249.401 483.421C251.701 479.97 255.501 477.838 259.601 477.838C263.701 477.838 267.501 479.868 269.801 483.421C270.101 483.827 270.001 484.436 269.501 484.74C269.101 485.045 268.501 484.943 268.201 484.436C266.301 481.492 263.001 479.665 259.601 479.665C256.101 479.665 252.901 481.391 251.001 484.436C250.801 484.842 250.501 484.943 250.201 484.943Z" fill="white"/>
<path d="M255.701 501.997C255.601 501.997 255.501 501.997 255.401 501.895C251.501 500.372 248.501 496.921 247.701 492.76C247.601 492.252 247.901 491.744 248.401 491.643C248.901 491.541 249.401 491.846 249.501 492.354C250.201 495.906 252.701 498.85 256.101 500.169C256.601 500.372 256.801 500.88 256.601 501.388C256.401 501.794 256.101 501.997 255.701 501.997Z" fill="white"/>
<path d="M264.101 501.794C263.701 501.794 263.401 501.591 263.301 501.286C263.101 500.779 263.301 500.271 263.801 500.068C266.901 498.647 269.201 495.805 269.801 492.455C269.901 491.948 270.401 491.643 270.901 491.745C271.401 491.846 271.701 492.354 271.601 492.861C270.801 496.82 268.201 500.17 264.501 501.794C264.401 501.794 264.301 501.794 264.101 501.794Z" fill="white"/>
<path d="M259.6 503.113C260.484 503.113 261.2 502.386 261.2 501.489C261.2 500.592 260.484 499.865 259.6 499.865C258.716 499.865 258 500.592 258 501.489C258 502.386 258.716 503.113 259.6 503.113Z" fill="white"/>
<path d="M248.6 489.816C249.484 489.816 250.2 489.089 250.2 488.192C250.2 487.295 249.484 486.568 248.6 486.568C247.716 486.568 247 487.295 247 488.192C247 489.089 247.716 489.816 248.6 489.816Z" fill="white"/>
<path d="M270.7 489.816C271.583 489.816 272.3 489.089 272.3 488.192C272.3 487.295 271.583 486.568 270.7 486.568C269.816 486.568 269.1 487.295 269.1 488.192C269.1 489.089 269.816 489.816 270.7 489.816Z" fill="white"/>
<path d="M94.1004 346.794C84.5004 346.794 76.1004 345.068 69.1004 341.719C62.0004 338.268 56.2004 333.801 51.6004 328.117C47.0004 322.534 43.5004 316.444 41.3004 309.947C39.1004 303.451 37.9004 297.259 37.9004 291.169V287.921C37.9004 281.323 39.1004 274.725 41.4004 268.127C43.7004 261.529 47.3004 255.642 52.0004 250.262C56.7004 244.882 62.6004 240.619 69.6004 237.472C76.6004 234.224 84.8004 232.702 94.1004 232.702C103.4 232.702 111.6 234.326 118.7 237.472C125.8 240.721 131.6 244.984 136.4 250.262C141.1 255.642 144.6 261.529 147 268.127C149.3 274.725 150.5 281.323 150.5 287.921V291.169C150.5 297.158 149.4 303.451 147.1 309.947C144.8 316.444 141.4 322.433 136.7 328.117C132.1 333.7 126.2 338.268 119.2 341.719C112.1 345.068 103.8 346.794 94.1004 346.794ZM94.1004 327.203C99.5004 327.203 104.5 326.188 108.8 324.26C113.2 322.331 116.9 319.591 120 316.038C123.1 312.485 125.4 308.526 127 304.06C128.6 299.594 129.4 294.823 129.4 289.748C129.4 284.368 128.6 279.496 126.9 274.928C125.2 270.36 122.9 266.402 119.8 262.95C116.7 259.499 113 256.86 108.7 255.033C104.4 253.206 99.5004 252.191 94.0004 252.191C88.6004 252.191 83.8004 253.104 79.4004 255.033C75.0004 256.962 71.3004 259.601 68.2004 262.95C65.1004 266.402 62.8004 270.36 61.2004 274.928C59.6004 279.496 58.8004 284.368 58.8004 289.748C58.8004 294.823 59.6004 299.594 61.2004 304.06C62.8004 308.526 65.1004 312.587 68.2004 316.038C71.3004 319.591 75.0004 322.331 79.4004 324.26C83.9004 326.29 88.8004 327.203 94.1004 327.203Z" fill="white"/>
<path d="M206.6 346.794C197.3 346.794 189.3 345.271 182.8 342.226C176.3 339.181 171.3 334.918 168 329.538C164.6 324.158 163 318.068 163 311.267H183.3C183.3 314.109 184.1 316.951 185.6 319.59C187.2 322.331 189.7 324.463 193.1 326.188C196.6 327.914 201.1 328.726 206.6 328.726C211.8 328.726 216 328.015 219.4 326.493C222.8 324.97 225.3 323.042 227 320.605C228.7 318.169 229.6 315.429 229.6 312.384C229.6 308.628 228 305.583 224.8 303.248C221.6 300.913 216.6 299.492 209.8 298.883L200.5 297.97C190.3 297.056 182.1 293.808 176 288.225C169.9 282.642 166.9 275.232 166.9 266.097C166.9 259.195 168.5 253.206 171.7 248.232C174.9 243.258 179.4 239.401 185.2 236.66C191 233.92 197.8 232.6 205.6 232.6C213.7 232.6 220.7 234.021 226.6 236.863C232.5 239.705 237 243.766 240.2 248.943C243.4 254.119 244.9 260.21 244.9 267.214H224.6C224.6 264.371 223.9 261.631 222.6 259.093C221.2 256.555 219.1 254.525 216.3 252.901C213.5 251.277 209.9 250.567 205.6 250.567C201.5 250.567 198.1 251.277 195.5 252.698C192.8 254.119 190.8 256.048 189.4 258.281C188 260.616 187.4 263.153 187.4 265.894C187.4 269.244 188.6 272.187 191.1 274.725C193.5 277.263 197.4 278.684 202.6 279.09L211.8 280.003C219.5 280.612 226.2 282.236 231.9 284.876C237.6 287.515 242 291.169 245.3 295.737C248.5 300.304 250.1 305.786 250.1 312.181C250.1 318.981 248.3 324.97 244.8 330.147C241.3 335.324 236.3 339.384 229.8 342.226C223.1 345.373 215.4 346.794 206.6 346.794Z" fill="white"/>
<path d="M316.8 346.794C307.1 346.794 298.8 345.068 291.9 341.719C285 338.268 279.4 333.801 275.1 328.219C270.8 322.636 267.6 316.647 265.5 310.151C263.5 303.654 262.4 297.361 262.4 291.27V288.022C262.4 281.323 263.4 274.725 265.5 268.127C267.6 261.631 270.8 255.642 275.1 250.364C279.4 244.984 285 240.721 291.7 237.574C298.5 234.326 306.5 232.803 315.7 232.803C325.3 232.803 333.8 234.63 341 238.183C348.2 241.736 353.9 246.709 358.2 253.003C362.5 259.296 365.1 266.706 365.9 275.233H344.9C344.2 270.259 342.5 266.097 339.9 262.747C337.2 259.398 333.8 256.86 329.7 255.033C325.6 253.206 320.9 252.394 315.8 252.394C310.6 252.394 306 253.307 301.9 255.236C297.8 257.165 294.4 259.702 291.7 263.052C289 266.402 286.9 270.36 285.5 274.928C284.1 279.496 283.4 284.47 283.4 289.849C283.4 295.229 284.1 300.101 285.5 304.669C286.9 309.237 289 313.196 291.9 316.647C294.7 320.098 298.2 322.737 302.3 324.564C306.4 326.493 311.2 327.407 316.7 327.407C324.7 327.407 331.4 325.376 336.8 321.418C342.2 317.459 345.6 311.775 346.7 304.568H367.7C366.7 312.282 364.1 319.388 360 325.782C355.8 332.177 350.1 337.354 342.8 341.211C335.6 344.865 326.9 346.794 316.8 346.794Z" fill="white"/>
<path d="M433.4 346.794C423.7 346.794 415.4 345.068 408.5 341.719C401.6 338.268 396 333.801 391.7 328.219C387.4 322.636 384.2 316.647 382.1 310.151C380.1 303.654 379 297.361 379 291.27V288.022C379 281.323 380 274.725 382.1 268.127C384.2 261.631 387.4 255.642 391.7 250.364C396 244.984 401.6 240.721 408.3 237.574C415.1 234.326 423.1 232.803 432.3 232.803C441.9 232.803 450.4 234.63 457.6 238.183C464.8 241.736 470.5 246.709 474.8 253.003C479.1 259.296 481.7 266.706 482.5 275.233H461.5C460.8 270.259 459.1 266.097 456.5 262.747C453.8 259.398 450.4 256.86 446.3 255.033C442.2 253.206 437.5 252.394 432.4 252.394C427.2 252.394 422.6 253.307 418.5 255.236C414.4 257.165 411 259.702 408.3 263.052C405.6 266.402 403.5 270.36 402.1 274.928C400.7 279.496 400 284.47 400 289.849C400 295.229 400.7 300.101 402.1 304.669C403.5 309.237 405.6 313.196 408.5 316.647C411.3 320.098 414.8 322.737 418.9 324.564C423 326.493 427.8 327.407 433.3 327.407C441.3 327.407 448 325.376 453.4 321.418C458.8 317.459 462.2 311.775 463.3 304.568H484.3C483.3 312.282 480.7 319.388 476.6 325.782C472.4 332.177 466.7 337.354 459.4 341.211C452.3 344.865 443.6 346.794 433.4 346.794Z" fill="white"/>
<path d="M332.981 380.418C333.821 382.407 334.241 384.787 334.206 387.558C334.206 390.401 333.821 392.781 332.981 394.77C332.176 396.795 330.986 398.288 329.481 399.353C327.976 400.419 326.121 400.917 324.021 400.917C321.886 400.917 320.066 400.384 318.561 399.353C317.021 398.288 315.866 396.76 315.026 394.77C314.221 392.781 313.801 390.365 313.836 387.558C313.836 384.787 314.221 382.407 315.061 380.418C315.866 378.464 317.021 376.971 318.561 375.941C320.101 374.911 321.886 374.378 324.021 374.378C326.121 374.378 327.941 374.911 329.481 375.941C330.986 376.971 332.176 378.464 332.981 380.418ZM327.486 394.238C328.361 392.745 328.781 390.507 328.781 387.558C328.781 385.64 328.571 384.006 328.186 382.727C327.801 381.412 327.241 380.453 326.541 379.814C325.806 379.139 325.001 378.819 324.021 378.819C322.586 378.819 321.431 379.565 320.556 381.021C319.716 382.478 319.261 384.645 319.261 387.558C319.261 389.548 319.471 391.182 319.856 392.497C320.241 393.811 320.801 394.806 321.501 395.445C322.236 396.12 323.076 396.44 324.021 396.44C325.456 396.44 326.611 395.694 327.486 394.238Z" fill="white"/>
<path d="M307.551 380.418C308.391 382.407 308.811 384.787 308.776 387.558C308.776 390.401 308.391 392.781 307.551 394.77C306.746 396.795 305.556 398.288 304.051 399.353C302.546 400.419 300.691 400.917 298.591 400.917C296.456 400.917 294.636 400.384 293.131 399.353C291.591 398.288 290.436 396.76 289.596 394.77C288.791 392.781 288.371 390.365 288.406 387.558C288.406 384.787 288.791 382.407 289.631 380.418C290.436 378.464 291.591 376.971 293.131 375.941C294.671 374.911 296.456 374.378 298.591 374.378C300.691 374.378 302.511 374.911 304.051 375.941C305.556 376.971 306.746 378.464 307.551 380.418ZM302.056 394.238C302.931 392.745 303.351 390.507 303.351 387.558C303.351 385.64 303.141 384.006 302.756 382.727C302.371 381.412 301.811 380.453 301.111 379.814C300.376 379.139 299.571 378.819 298.591 378.819C297.156 378.819 296.001 379.565 295.126 381.021C294.286 382.478 293.831 384.645 293.831 387.558C293.831 389.548 294.041 391.182 294.426 392.497C294.811 393.811 295.371 394.806 296.071 395.445C296.806 396.12 297.646 396.44 298.591 396.44C300.026 396.44 301.181 395.694 302.056 394.238Z" fill="white"/>
<path d="M278.015 374.733H283.055V400.384H277.7V379.885H277.56L271.785 383.544V378.748L278.015 374.733Z" fill="white"/>
<path d="M267.876 391.964H256.361V387.736H267.876V391.964Z" fill="white"/>
<path d="M246.941 393.42V393.456C247.256 392.887 247.466 392.284 247.606 391.609L252.996 391.644C252.856 392.816 252.506 393.953 251.946 395.019C251.386 396.12 250.651 397.08 249.706 397.968C248.796 398.82 247.676 399.496 246.381 399.993C245.121 400.49 243.651 400.703 242.041 400.703C239.766 400.703 237.771 400.206 235.986 399.176C234.236 398.145 232.836 396.618 231.786 394.664C230.771 392.71 230.281 390.365 230.281 387.558C230.281 384.752 230.771 382.372 231.821 380.418C232.871 378.464 234.271 376.971 236.021 375.941C237.806 374.911 239.801 374.378 242.041 374.378C243.511 374.378 244.841 374.591 246.101 375.017C247.361 375.408 248.481 376.048 249.426 376.829C250.406 377.611 251.211 378.606 251.806 379.743C252.436 380.915 252.821 382.229 252.996 383.722H247.606C247.501 383.011 247.291 382.372 246.976 381.803C246.696 381.27 246.276 380.773 245.821 380.382C245.331 379.991 244.771 379.707 244.176 379.494C243.546 379.281 242.881 379.174 242.146 379.174C240.851 379.174 239.696 379.494 238.751 380.169C237.771 380.808 237.001 381.768 236.476 383.011C235.951 384.254 235.671 385.782 235.671 387.558C235.671 389.37 235.951 390.898 236.476 392.141C237.036 393.385 237.771 394.344 238.751 394.984C239.731 395.623 240.851 395.907 242.111 395.907C242.811 395.907 243.476 395.836 244.106 395.623C244.701 395.445 245.261 395.161 245.751 394.806C246.206 394.415 246.626 393.953 246.941 393.42Z" fill="white"/>
<path d="M214.777 395.907H226.502V400.384H209.457V374.733H226.467V379.21H214.777V385.32H225.592V389.761H214.777V395.907Z" fill="white"/>
<path d="M204.281 390.187C204.666 391.04 204.841 391.964 204.841 393.03C204.841 394.628 204.456 395.978 203.686 397.115C202.881 398.252 201.796 399.14 200.326 399.78C198.856 400.419 197.106 400.739 195.041 400.739C193.011 400.739 191.226 400.419 189.721 399.78C188.216 399.14 187.026 398.217 186.186 396.938C185.346 395.694 184.926 394.166 184.891 392.319H190.036C190.106 393.172 190.351 393.882 190.771 394.451C191.191 395.019 191.786 395.481 192.521 395.765C193.221 396.049 194.061 396.191 194.971 396.191C195.881 396.191 196.686 396.049 197.351 395.801C198.016 395.516 198.541 395.161 198.891 394.664C199.276 394.202 199.451 393.634 199.451 393.03C199.451 392.461 199.276 391.964 198.961 391.573C198.611 391.182 198.156 390.862 197.491 390.578C196.861 390.294 196.091 390.045 195.181 389.832L192.416 389.122C190.281 388.589 188.601 387.772 187.376 386.67C186.151 385.533 185.521 384.041 185.521 382.158C185.521 380.595 185.941 379.245 186.746 378.073C187.586 376.9 188.741 376.012 190.176 375.373C191.611 374.698 193.256 374.378 195.111 374.378C196.966 374.378 198.611 374.698 200.011 375.373C201.411 376.012 202.496 376.9 203.301 378.073C204.071 379.245 204.491 380.56 204.491 382.087H199.381C199.276 381.093 198.856 380.311 198.121 379.743C197.351 379.174 196.336 378.925 195.076 378.925C194.201 378.925 193.466 379.032 192.871 379.281C192.276 379.529 191.786 379.885 191.471 380.311C191.156 380.737 191.016 381.235 191.016 381.768C190.981 382.229 191.086 382.62 191.296 382.975C191.506 383.331 191.786 383.615 192.171 383.864C192.556 384.112 192.976 384.325 193.466 384.503C193.921 384.681 194.446 384.823 195.006 384.965L197.281 385.498C198.366 385.747 199.381 386.102 200.291 386.493C201.236 386.919 202.041 387.452 202.706 388.056C203.371 388.66 203.896 389.37 204.281 390.187Z" fill="white"/>
<path d="M364.9 390.34H488.6" stroke="#FFDF00" stroke-width="2" stroke-miterlimit="10"/>
<path d="M31.4004 390.34H155.1" stroke="#FFDF00" stroke-width="2" stroke-miterlimit="10"/>
<defs>
<linearGradient id="paint0_linear_831_13261" x1="260" y1="597.252" x2="260" y2="84.2309" gradientUnits="userSpaceOnUse">
<stop stop-color="#FFDF00" stop-opacity="0.6"/>
<stop offset="1" stop-color="#FFDF00"/>
</linearGradient>
<linearGradient id="paint1_linear_831_13261" x1="260" y1="679.122" x2="260" y2="235.189" gradientUnits="userSpaceOnUse">
<stop stop-color="#FFDF00"/>
<stop offset="1" stop-color="#FFDF00" stop-opacity="0.6"/>
</linearGradient>
<linearGradient id="paint2_linear_831_13261" x1="260" y1="162.115" x2="260" y2="519.461" gradientUnits="userSpaceOnUse">
<stop stop-color="#FFDF00"/>
<stop offset="1" stop-color="#FFDF00" stop-opacity="0.6"/>
</linearGradient>
<linearGradient id="paint3_linear_831_13261" x1="258.789" y1="548.836" x2="260.951" y2="447.137" gradientUnits="userSpaceOnUse">
<stop stop-color="#FFDF00" stop-opacity="0"/>
<stop offset="1" stop-color="#FFDF00" stop-opacity="0.962"/>
</linearGradient>
</defs>
</svg>
