<svg xmlns="http://www.w3.org/2000/svg" width="300" height="300" fill="none"><path fill="url(#a)" d="M236.638 246.713c5.797-1.496 9.283-7.408 7.787-13.205s-7.407-9.283-13.204-7.787-9.284 7.407-7.788 13.204 7.408 9.284 13.205 7.788"/><path fill="url(#b)" d="M232.79 72.84c-5.98 0-10.84-4.86-10.84-10.84s4.86-10.84 10.84-10.84 10.84 4.86 10.84 10.84-4.86 10.84-10.84 10.84"/><path fill="url(#c)" d="M68.37 72.92c5.987 0 10.84-4.853 10.84-10.84s-4.853-10.84-10.84-10.84-10.84 4.853-10.84 10.84 4.853 10.84 10.84 10.84"/><path fill="url(#d)" d="M66.84 248.13c-5.98 0-10.84-4.86-10.84-10.84s4.86-10.84 10.84-10.84 10.84 4.86 10.84 10.84-4.86 10.84-10.84 10.84"/><path fill="url(#e)" d="m235.6 186.39-31.97-31.97c-.48-.48-1.14-.75-1.82-.75h-29.57c.78-2.05 1.27-4.21 1.45-6.44h26.99c.68 0 1.34-.27 1.82-.75l31.97-31.97c.48-.48.75-1.14.75-1.82V72.9c0-.12-.02-.23-.03-.34-.78.18-1.58.28-2.41.28-.92 0-1.81-.13-2.66-.34-.02.13-.04.27-.04.41v38.72l-30.47 30.47H173.5c-.14-1.01-.34-1.99-.61-2.95l28.89-28.89c.48-.48.75-1.14.75-1.82V61.35c0-.68-.27-1.34-.75-1.82l-28.76-28.78c-1-1-2.63-1-3.64 0-1 1-1 2.63 0 3.64l28.02 28.02v44.95l-26.61 26.61c-2.19-3.9-5.45-7.12-9.39-9.23l2.61-4.19c.38-.6.34-1.38-.09-1.94l-5.68-7.49c-.57-.75-1.65-.9-2.4-.33s-.9 1.65-.33 2.4l4.97 6.55-2.26 3.61c-2.46-.88-5.09-1.38-7.85-1.38s-5.23.47-7.62 1.3l-2.25-3.54 4.96-6.54c.57-.75.43-1.83-.33-2.4-.75-.57-1.83-.42-2.4.33l-5.68 7.49c-.43.57-.47 1.35-.08 1.96l2.59 4.07a23.55 23.55 0 0 0-9.52 9.2l-26.47-26.48V62.41l28.02-28.02c1-1 1-2.63 0-3.64-1-1-2.63-1-3.64 0L99.18 59.52c-.48.48-.75 1.14-.75 1.82v47.08c0 .68.27 1.34.75 1.82l28.71 28.72c-.29 1.02-.51 2.06-.66 3.13h-25.88l-30.47-30.47V72.9c0-.1-.02-.19-.03-.28-.8.19-1.63.3-2.49.3s-1.76-.12-2.59-.33c-.01.1-.03.2-.03.31v39.79c0 .68.27 1.34.75 1.82l31.97 31.97c.48.48 1.14.75 1.82.75h26.77c.17 2.22.66 4.38 1.45 6.44H99.15c-.68 0-1.34.27-1.82.75l-31.97 31.97c-.48.48-.75 1.14-.75 1.82v38.48c.72-.15 1.46-.23 2.23-.23 1.01 0 1.99.15 2.92.41v-37.59l30.47-30.46h28.36c-3.91 2.98-7.12 6.7-9.5 10.9-.08.06-.17.09-.24.16l-20.78 20.78c-.48.48-.75 1.14-.75 1.82v47.08c0 .68.27 1.34.75 1.82l28.77 28.77c.5.5 1.16.75 1.82.75s1.32-.25 1.82-.75c1-1 1-2.63 0-3.64l-28.02-28.02v-44.95l12.51-12.51c-.39 2.11-.59 4.26-.59 6.45 0 19.86 16.15 36.01 36.01 36.01s36.01-16.15 36.01-36.01c0-2.28-.22-4.52-.64-6.72l12.78 12.78v44.95l-28.02 28.02c-1 1-1 2.63 0 3.64.5.5 1.16.75 1.82.75s1.32-.25 1.82-.75l28.77-28.77c.48-.48.75-1.14.75-1.82v-47.08c0-.68-.27-1.34-.75-1.82l-20.78-20.78c-.18-.18-.39-.29-.6-.4-2.37-4.1-5.53-7.74-9.36-10.66h28.58l30.47 30.46v36.44c.87-.23 1.78-.36 2.73-.36.83 0 1.64.1 2.42.28v-37.43c0-.68-.27-1.34-.75-1.82z"/><path fill="#fff" d="m151.73 195.68 5.48-7.08c.4-.52.47-1.22.18-1.8-.29-.59-.88-.96-1.54-.96h-10.96c-.65 0-1.25.37-1.54.96a1.7 1.7 0 0 0 .18 1.8l5.48 7.08-5.48 7.08c-.4.52-.47 1.22-.18 1.8.29.59.88.96 1.54.96h10.96c.65 0 1.25-.37 1.54-.96a1.7 1.7 0 0 0-.18-1.8zm.63-6.41-1.99 2.57-1.99-2.57zm-3.98 12.83 1.99-2.57 1.99 2.57zm88.258 44.613c5.797-1.496 9.283-7.408 7.787-13.205s-7.407-9.283-13.204-7.787-9.284 7.407-7.788 13.204 7.408 9.284 13.205 7.788M232.79 72.84c-5.98 0-10.84-4.86-10.84-10.84s4.86-10.84 10.84-10.84 10.84 4.86 10.84 10.84-4.86 10.84-10.84 10.84m0-16.54a5.71 5.71 0 0 0-5.7 5.7c0 3.14 2.56 5.7 5.7 5.7s5.7-2.56 5.7-5.7-2.56-5.7-5.7-5.7M68.37 72.92c5.987 0 10.84-4.853 10.84-10.84s-4.853-10.84-10.84-10.84-10.84 4.853-10.84 10.84 4.853 10.84 10.84 10.84m-1.53 175.21c-5.98 0-10.84-4.86-10.84-10.84s4.86-10.84 10.84-10.84 10.84 4.86 10.84 10.84-4.86 10.84-10.84 10.84m0-16.54a5.71 5.71 0 0 0-5.7 5.7c0 3.14 2.56 5.7 5.7 5.7s5.7-2.56 5.7-5.7-2.56-5.7-5.7-5.7"/><path fill="#fff" d="m235.6 186.39-31.97-31.97c-.48-.48-1.14-.75-1.82-.75h-29.57c.78-2.05 1.27-4.21 1.45-6.44h26.99c.68 0 1.34-.27 1.82-.75l31.97-31.97c.48-.48.75-1.14.75-1.82V72.9c0-.12-.02-.23-.03-.34-.78.18-1.58.28-2.41.28-.92 0-1.81-.13-2.66-.34-.02.13-.04.27-.04.41v38.72l-30.47 30.47H173.5c-.14-1.01-.34-1.99-.61-2.95l28.89-28.89c.48-.48.75-1.14.75-1.82V61.35c0-.68-.27-1.34-.75-1.82l-28.76-28.78c-1-1-2.63-1-3.64 0-1 1-1 2.63 0 3.64l28.02 28.02v44.95l-26.61 26.61c-2.19-3.9-5.45-7.12-9.39-9.23l2.61-4.19c.38-.6.34-1.38-.09-1.94l-5.68-7.49c-.57-.75-1.65-.9-2.4-.33s-.9 1.65-.33 2.4l4.97 6.55-2.26 3.61c-2.46-.88-5.09-1.38-7.85-1.38s-5.23.47-7.62 1.3l-2.25-3.54 4.96-6.54c.57-.75.43-1.83-.33-2.4-.75-.57-1.83-.42-2.4.33l-5.68 7.49c-.43.57-.47 1.35-.08 1.96l2.59 4.07a23.55 23.55 0 0 0-9.52 9.2l-26.47-26.48V62.41l28.02-28.02c1-1 1-2.63 0-3.64-1-1-2.63-1-3.64 0L99.18 59.52c-.48.48-.75 1.14-.75 1.82v47.08c0 .68.27 1.34.75 1.82l28.71 28.72c-.29 1.02-.51 2.06-.66 3.13h-25.88l-30.47-30.47V72.9c0-.1-.02-.19-.03-.28-.8.19-1.63.3-2.49.3s-1.76-.12-2.59-.33c-.01.1-.03.2-.03.31v39.79c0 .68.27 1.34.75 1.82l31.97 31.97c.48.48 1.14.75 1.82.75h26.77c.17 2.22.66 4.38 1.45 6.44H99.15c-.68 0-1.34.27-1.82.75l-31.97 31.97c-.48.48-.75 1.14-.75 1.82v38.48c.72-.15 1.46-.23 2.23-.23 1.01 0 1.99.15 2.92.41v-37.59l30.47-30.46h28.36c-3.91 2.98-7.12 6.7-9.5 10.9-.08.06-.17.09-.24.16l-20.78 20.78c-.48.48-.75 1.14-.75 1.82v47.08c0 .68.27 1.34.75 1.82l28.77 28.77c.5.5 1.16.75 1.82.75s1.32-.25 1.82-.75c1-1 1-2.63 0-3.64l-28.02-28.02v-44.95l12.51-12.51c-.39 2.11-.59 4.26-.59 6.45 0 19.86 16.15 36.01 36.01 36.01s36.01-16.15 36.01-36.01c0-2.28-.22-4.52-.64-6.72l12.78 12.78v44.95l-28.02 28.02c-1 1-1 2.63 0 3.64.5.5 1.16.75 1.82.75s1.32-.25 1.82-.75l28.77-28.77c.48-.48.75-1.14.75-1.82v-47.08c0-.68-.27-1.34-.75-1.82l-20.78-20.78c-.18-.18-.39-.29-.6-.4-2.37-4.1-5.53-7.74-9.36-10.66h28.58l30.47 30.46v36.44c.87-.23 1.78-.36 2.73-.36.83 0 1.64.1 2.42.28v-37.43c0-.68-.27-1.34-.75-1.82zm-54.36 1.08c0 17.02-13.85 30.87-30.87 30.87s-30.87-13.85-30.87-30.87c0-11.16 6.06-21.48 15.81-26.94.66-.37 1.12-1.01 1.27-1.74.15-.74-.04-1.5-.51-2.1a18.12 18.12 0 0 1-3.95-11.26c.08-.24.13-.5.13-.77 0-.2-.03-.38-.07-.57.66-9.47 8.56-16.98 18.19-16.98s18.25 8.19 18.25 18.26c0 4.14-1.37 8.06-3.95 11.32-.47.59-.65 1.36-.51 2.1.15.74.61 1.38 1.27 1.74 9.75 5.46 15.81 15.79 15.81 26.94"/><defs><linearGradient id="a" x1="561.367" x2="-285.495" y1="-1881.51" y2="690.037" gradientUnits="userSpaceOnUse"><stop stop-color="#00E09E"/><stop offset="1" stop-color="#008480" stop-opacity="0"/></linearGradient><linearGradient id="b" x1="150.386" x2="150.386" y1="-205.122" y2="2747.68" gradientUnits="userSpaceOnUse"><stop stop-color="#00E09E"/><stop offset="1" stop-color="#008480" stop-opacity="0"/></linearGradient><linearGradient id="c" x1="150.386" x2="150.386" y1="-13.224" y2="2746.79" gradientUnits="userSpaceOnUse"><stop stop-color="#07C7C2"/><stop offset="1" stop-color="#07C7C2" stop-opacity="0"/></linearGradient><linearGradient id="d" x1="150.386" x2="150.386" y1="-1960.09" y2="799.924" gradientUnits="userSpaceOnUse"><stop stop-color="#07C7C2"/><stop offset="1" stop-color="#07C7C2" stop-opacity="0"/></linearGradient><linearGradient id="e" x1="150.375" x2="150.375" y1="47.35" y2="295.74" gradientUnits="userSpaceOnUse"><stop stop-color="#07C7C2"/><stop offset="1" stop-color="#07C7C2" stop-opacity="0"/></linearGradient></defs></svg>